<mxfile host="app.diagrams.net" modified="2023-06-16T05:25:17.032Z" agent="Mozilla/5.0 (Windows NT 10.0; Win64; x64; rv:109.0) Gecko/20100101 Firefox/114.0" etag="SaGizd2_aFVTYG3q5icF" version="21.3.7" type="github">
  <diagram name="第 1 页" id="cNeXyacaS3HCfai4t9V_">
    <mxGraphModel dx="1434" dy="774" grid="1" gridSize="10" guides="1" tooltips="1" connect="1" arrows="1" fold="1" page="1" pageScale="1" pageWidth="1169" pageHeight="827" math="0" shadow="0">
      <root>
        <mxCell id="0" />
        <mxCell id="1" parent="0" />
        <mxCell id="YYZPUzSrGFXBIZA3czpT-3" style="edgeStyle=orthogonalEdgeStyle;rounded=0;orthogonalLoop=1;jettySize=auto;html=1;" edge="1" parent="1" source="YYZPUzSrGFXBIZA3czpT-1" target="YYZPUzSrGFXBIZA3czpT-2">
          <mxGeometry relative="1" as="geometry" />
        </mxCell>
        <mxCell id="YYZPUzSrGFXBIZA3czpT-1" value="国内外AI与建筑设计相关文献与案例研究" style="rounded=1;whiteSpace=wrap;html=1;" vertex="1" parent="1">
          <mxGeometry x="80" y="260" width="120" height="60" as="geometry" />
        </mxCell>
        <mxCell id="YYZPUzSrGFXBIZA3czpT-5" style="edgeStyle=orthogonalEdgeStyle;rounded=0;orthogonalLoop=1;jettySize=auto;html=1;entryX=0;entryY=0.5;entryDx=0;entryDy=0;" edge="1" parent="1" source="YYZPUzSrGFXBIZA3czpT-2" target="YYZPUzSrGFXBIZA3czpT-4">
          <mxGeometry relative="1" as="geometry" />
        </mxCell>
        <mxCell id="YYZPUzSrGFXBIZA3czpT-7" style="edgeStyle=orthogonalEdgeStyle;rounded=0;orthogonalLoop=1;jettySize=auto;html=1;" edge="1" parent="1" source="YYZPUzSrGFXBIZA3czpT-2" target="YYZPUzSrGFXBIZA3czpT-6">
          <mxGeometry relative="1" as="geometry" />
        </mxCell>
        <mxCell id="YYZPUzSrGFXBIZA3czpT-9" style="edgeStyle=orthogonalEdgeStyle;rounded=0;orthogonalLoop=1;jettySize=auto;html=1;entryX=0;entryY=0.5;entryDx=0;entryDy=0;" edge="1" parent="1" source="YYZPUzSrGFXBIZA3czpT-2" target="YYZPUzSrGFXBIZA3czpT-8">
          <mxGeometry relative="1" as="geometry" />
        </mxCell>
        <mxCell id="YYZPUzSrGFXBIZA3czpT-2" value="成功案例梳理" style="rounded=1;whiteSpace=wrap;html=1;" vertex="1" parent="1">
          <mxGeometry x="285" y="260" width="120" height="60" as="geometry" />
        </mxCell>
        <mxCell id="YYZPUzSrGFXBIZA3czpT-4" value="自然语言类" style="rounded=1;whiteSpace=wrap;html=1;" vertex="1" parent="1">
          <mxGeometry x="490" y="190" width="120" height="60" as="geometry" />
        </mxCell>
        <mxCell id="YYZPUzSrGFXBIZA3czpT-6" value="图片类" style="rounded=1;whiteSpace=wrap;html=1;" vertex="1" parent="1">
          <mxGeometry x="490" y="290" width="120" height="60" as="geometry" />
        </mxCell>
        <mxCell id="YYZPUzSrGFXBIZA3czpT-8" value="生成式设计类" style="rounded=1;whiteSpace=wrap;html=1;" vertex="1" parent="1">
          <mxGeometry x="490" y="390" width="120" height="60" as="geometry" />
        </mxCell>
      </root>
    </mxGraphModel>
  </diagram>
</mxfile>
